<?xml version="1.0" encoding="UTF-8" standalone="no"?>
<!DOCTYPE svg PUBLIC "-//W3C//DTD SVG 1.1//EN"
 "http://www.w3.org/Graphics/SVG/1.1/DTD/svg11.dtd">
<!-- Generated by graphviz version 2.50.0 (0)
 -->
<!-- Pages: 1 -->
<svg width="475pt" height="203pt"
 viewBox="0.00 0.00 475.00 203.00" xmlns="http://www.w3.org/2000/svg" xmlns:xlink="http://www.w3.org/1999/xlink">
<g id="graph0" class="graph" transform="scale(1 1) rotate(0) translate(4 199)">
<polygon fill="white" stroke="transparent" points="-4,4 -4,-199 471,-199 471,4 -4,4"/>
<!-- E -->
<g id="node1" class="node">
<title>E</title>
<ellipse fill="none" stroke="black" cx="127" cy="-126" rx="27" ry="18"/>
<text text-anchor="middle" x="127" y="-122.3" font-family="Times,serif" font-size="14.00">E</text>
</g>
<!-- F -->
<g id="node2" class="node">
<title>F</title>
<ellipse fill="none" stroke="black" cx="227" cy="-126" rx="27" ry="18"/>
<text text-anchor="middle" x="227" y="-122.3" font-family="Times,serif" font-size="14.00">F</text>
</g>
<!-- E&#45;&gt;F -->
<g id="edge1" class="edge">
<title>E&#45;&gt;F</title>
<path fill="none" stroke="black" d="M154,-126C164.97,-126 177.92,-126 189.79,-126"/>
<polygon fill="black" stroke="black" points="189.87,-129.5 199.87,-126 189.87,-122.5 189.87,-129.5"/>
<text text-anchor="middle" x="177" y="-129.8" font-family="Times,serif" font-size="14.00">2</text>
</g>
<!-- A -->
<g id="node3" class="node">
<title>A</title>
<ellipse fill="none" stroke="black" cx="227" cy="-18" rx="27" ry="18"/>
<text text-anchor="middle" x="227" y="-14.3" font-family="Times,serif" font-size="14.00">A</text>
</g>
<!-- B -->
<g id="node4" class="node">
<title>B</title>
<ellipse fill="none" stroke="black" cx="340" cy="-72" rx="27" ry="18"/>
<text text-anchor="middle" x="340" y="-68.3" font-family="Times,serif" font-size="14.00">B</text>
</g>
<!-- A&#45;&gt;B -->
<g id="edge2" class="edge">
<title>A&#45;&gt;B</title>
<path fill="none" stroke="black" d="M249.4,-28.41C266.22,-36.59 289.85,-48.09 308.62,-57.22"/>
<polygon fill="black" stroke="black" points="307.14,-60.39 317.66,-61.62 310.2,-54.1 307.14,-60.39"/>
<text text-anchor="middle" x="283.5" y="-52.8" font-family="Times,serif" font-size="14.00">1</text>
</g>
<!-- C -->
<g id="node5" class="node">
<title>C</title>
<ellipse fill="none" stroke="black" cx="440" cy="-126" rx="27" ry="18"/>
<text text-anchor="middle" x="440" y="-122.3" font-family="Times,serif" font-size="14.00">C</text>
</g>
<!-- B&#45;&gt;C -->
<g id="edge3" class="edge">
<title>B&#45;&gt;C</title>
<path fill="none" stroke="black" d="M361.31,-83.19C375.37,-90.94 394.29,-101.36 409.94,-109.99"/>
<polygon fill="black" stroke="black" points="408.27,-113.06 418.72,-114.83 411.65,-106.93 408.27,-113.06"/>
<text text-anchor="middle" x="390" y="-103.8" font-family="Times,serif" font-size="14.00">1</text>
</g>
<!-- D -->
<g id="node6" class="node">
<title>D</title>
<ellipse fill="none" stroke="black" cx="27" cy="-126" rx="27" ry="18"/>
<text text-anchor="middle" x="27" y="-122.3" font-family="Times,serif" font-size="14.00">D</text>
</g>
<!-- C&#45;&gt;D -->
<g id="edge4" class="edge">
<title>C&#45;&gt;D</title>
<path fill="none" stroke="black" d="M423.79,-140.76C405.64,-156.74 373.64,-180 341,-180 126,-180 126,-180 126,-180 97.57,-180 69.62,-162.35 50.89,-147.24"/>
<polygon fill="black" stroke="black" points="53.11,-144.53 43.21,-140.76 48.6,-149.88 53.11,-144.53"/>
<text text-anchor="middle" x="227" y="-183.8" font-family="Times,serif" font-size="14.00">1</text>
</g>
<!-- D&#45;&gt;E -->
<g id="edge5" class="edge">
<title>D&#45;&gt;E</title>
<path fill="none" stroke="black" d="M54,-126C64.97,-126 77.92,-126 89.79,-126"/>
<polygon fill="black" stroke="black" points="89.87,-129.5 99.87,-126 89.87,-122.5 89.87,-129.5"/>
<text text-anchor="middle" x="77" y="-129.8" font-family="Times,serif" font-size="14.00">1</text>
</g>
<!-- G -->
<g id="node7" class="node">
<title>G</title>
<ellipse fill="none" stroke="black" cx="127" cy="-72" rx="27" ry="18"/>
<text text-anchor="middle" x="127" y="-68.3" font-family="Times,serif" font-size="14.00">G</text>
</g>
<!-- D&#45;&gt;G -->
<g id="edge6" class="edge">
<title>D&#45;&gt;G</title>
<path fill="none" stroke="black" d="M48.31,-114.81C62.37,-107.06 81.29,-96.64 96.94,-88.01"/>
<polygon fill="black" stroke="black" points="98.65,-91.07 105.72,-83.17 95.27,-84.94 98.65,-91.07"/>
<text text-anchor="middle" x="77" y="-103.8" font-family="Times,serif" font-size="14.00">1</text>
</g>
<!-- H -->
<g id="node8" class="node">
<title>H</title>
<ellipse fill="none" stroke="black" cx="227" cy="-72" rx="27" ry="18"/>
<text text-anchor="middle" x="227" y="-68.3" font-family="Times,serif" font-size="14.00">H</text>
</g>
<!-- G&#45;&gt;H -->
<g id="edge7" class="edge">
<title>G&#45;&gt;H</title>
<path fill="none" stroke="black" d="M154,-72C164.97,-72 177.92,-72 189.79,-72"/>
<polygon fill="black" stroke="black" points="189.87,-75.5 199.87,-72 189.87,-68.5 189.87,-75.5"/>
<text text-anchor="middle" x="177" y="-75.8" font-family="Times,serif" font-size="14.00">1</text>
</g>
<!-- H&#45;&gt;B -->
<g id="edge8" class="edge">
<title>H&#45;&gt;B</title>
<path fill="none" stroke="black" d="M254.02,-72C268.53,-72 286.83,-72 302.72,-72"/>
<polygon fill="black" stroke="black" points="302.75,-75.5 312.75,-72 302.75,-68.5 302.75,-75.5"/>
<text text-anchor="middle" x="283.5" y="-75.8" font-family="Times,serif" font-size="14.00">&#45;20</text>
</g>
</g>
</svg>
