<?xml version="1.0" encoding="UTF-8" standalone="no"?>
<!DOCTYPE svg PUBLIC "-//W3C//DTD SVG 1.1//EN"
 "http://www.w3.org/Graphics/SVG/1.1/DTD/svg11.dtd">
<!-- Generated by graphviz version 2.50.0 (0)
 -->
<!-- Pages: 1 -->
<svg width="266pt" height="177pt"
 viewBox="0.00 0.00 266.00 177.00" xmlns="http://www.w3.org/2000/svg" xmlns:xlink="http://www.w3.org/1999/xlink">
<g id="graph0" class="graph" transform="scale(1 1) rotate(0) translate(4 173)">
<polygon fill="white" stroke="transparent" points="-4,4 -4,-173 262,-173 262,4 -4,4"/>
<!-- D -->
<g id="node1" class="node">
<title>D</title>
<ellipse fill="none" stroke="black" cx="27" cy="-129" rx="27" ry="18"/>
<text text-anchor="middle" x="27" y="-125.3" font-family="Times,serif" font-size="14.00">D</text>
</g>
<!-- A -->
<g id="node2" class="node">
<title>A</title>
<ellipse fill="none" stroke="black" cx="131" cy="-54" rx="27" ry="18"/>
<text text-anchor="middle" x="131" y="-50.3" font-family="Times,serif" font-size="14.00">A</text>
</g>
<!-- D&#45;&gt;A -->
<g id="edge1" class="edge">
<title>D&#45;&gt;A</title>
<path fill="none" stroke="black" d="M43.34,-114.25C51.55,-106.65 62.01,-97.44 72,-90 81.15,-83.19 91.61,-76.41 101.11,-70.6"/>
<polygon fill="black" stroke="black" points="103.08,-73.5 109.85,-65.36 99.48,-67.5 103.08,-73.5"/>
<text text-anchor="middle" x="79" y="-93.8" font-family="Times,serif" font-size="14.00">&#45;2</text>
</g>
<!-- C -->
<g id="node4" class="node">
<title>C</title>
<ellipse fill="none" stroke="black" cx="131" cy="-117" rx="27" ry="18"/>
<text text-anchor="middle" x="131" y="-113.3" font-family="Times,serif" font-size="14.00">C</text>
</g>
<!-- D&#45;&gt;C -->
<g id="edge3" class="edge">
<title>D&#45;&gt;C</title>
<path fill="none" stroke="black" d="M48.97,-118.49C56.09,-115.44 64.23,-112.53 72,-111 79.44,-109.54 87.5,-109.44 95.17,-110.04"/>
<polygon fill="black" stroke="black" points="94.96,-113.54 105.3,-111.23 95.78,-106.59 94.96,-113.54"/>
<text text-anchor="middle" x="79" y="-114.8" font-family="Times,serif" font-size="14.00">2</text>
</g>
<!-- E -->
<g id="node5" class="node">
<title>E</title>
<ellipse fill="none" stroke="black" cx="231" cy="-54" rx="27" ry="18"/>
<text text-anchor="middle" x="231" y="-50.3" font-family="Times,serif" font-size="14.00">E</text>
</g>
<!-- A&#45;&gt;E -->
<g id="edge7" class="edge">
<title>A&#45;&gt;E</title>
<path fill="none" stroke="black" d="M158,-54C168.97,-54 181.92,-54 193.79,-54"/>
<polygon fill="black" stroke="black" points="193.87,-57.5 203.87,-54 193.87,-50.5 193.87,-57.5"/>
<text text-anchor="middle" x="181" y="-57.8" font-family="Times,serif" font-size="14.00">3</text>
</g>
<!-- B -->
<g id="node3" class="node">
<title>B</title>
<ellipse fill="none" stroke="black" cx="27" cy="-18" rx="27" ry="18"/>
<text text-anchor="middle" x="27" y="-14.3" font-family="Times,serif" font-size="14.00">B</text>
</g>
<!-- B&#45;&gt;A -->
<g id="edge2" class="edge">
<title>B&#45;&gt;A</title>
<path fill="none" stroke="black" d="M52.48,-24.46C62.91,-27.39 75.14,-31.08 86,-35 90.25,-36.54 94.68,-38.27 99.02,-40.06"/>
<polygon fill="black" stroke="black" points="97.71,-43.31 108.28,-43.99 100.44,-36.86 97.71,-43.31"/>
<text text-anchor="middle" x="79" y="-38.8" font-family="Times,serif" font-size="14.00">3</text>
</g>
<!-- B&#45;&gt;E -->
<g id="edge5" class="edge">
<title>B&#45;&gt;E</title>
<path fill="none" stroke="black" d="M52.93,-12.39C79.47,-7.45 122.45,-2.39 158,-12 174.57,-16.48 191.25,-25.83 204.37,-34.57"/>
<polygon fill="black" stroke="black" points="202.63,-37.62 212.84,-40.45 206.63,-31.87 202.63,-37.62"/>
<text text-anchor="middle" x="131" y="-15.8" font-family="Times,serif" font-size="14.00">2</text>
</g>
<!-- C&#45;&gt;D -->
<g id="edge4" class="edge">
<title>C&#45;&gt;D</title>
<path fill="none" stroke="black" d="M104.98,-122.79C98.8,-124.04 92.19,-125.21 86,-126 78.93,-126.9 71.34,-127.53 64.06,-127.98"/>
<polygon fill="black" stroke="black" points="63.87,-124.48 54.06,-128.48 64.22,-131.47 63.87,-124.48"/>
<text text-anchor="middle" x="79" y="-130.8" font-family="Times,serif" font-size="14.00">&#45;1</text>
</g>
<!-- E&#45;&gt;D -->
<g id="edge6" class="edge">
<title>E&#45;&gt;D</title>
<path fill="none" stroke="black" d="M222.16,-71.01C211.23,-92.48 189.17,-128.48 158,-144 118.96,-163.44 95.22,-150.33 72,-146 67.74,-145.21 63.37,-144.02 59.1,-142.62"/>
<polygon fill="black" stroke="black" points="60.06,-139.25 49.47,-139.11 57.66,-145.83 60.06,-139.25"/>
<text text-anchor="middle" x="131" y="-157.8" font-family="Times,serif" font-size="14.00">&#45;2</text>
</g>
</g>
</svg>
